Coordinates
version=1
nRows=15
nColumns=19
inDegrees=yes

Units are S.I. units (second, meters, Newtons, ...)
If the header above contains a line with 'inDegrees', this indicates whether rotational values are in degrees (yes) or radians (no).

endheader
time	pelvis_tilt	pelvis_list	pelvis_rotation	pelvis_tx	pelvis_ty	pelvis_tz	hip_flexion_r	hip_adduction_r	hip_rotation_r	knee_angle_r	knee_angle_r_beta	ankle_angle_r	hip_flexion_l	hip_adduction_l	hip_rotation_l	knee_angle_l	knee_angle_l_beta	ankle_angle_l
     14.83333333	     -4.57700504	     -8.73771772	     -3.95467365	      2.18175956	      1.00247547	      1.03056397	     21.49001801	     14.76925695	     -5.58783695	      6.82077631	      0.11904500	      0.18254862	    -11.21740164	    -13.92015202	    -18.23181410	     53.97730065	      0.94208162	    -12.23281086
     14.84000000	     -4.45722527	     -9.21254672	     -4.39548431	      2.18154010	      0.99767194	      1.03114217	     21.80081579	     15.26403930	     -6.14053403	      8.95661396	      0.15632240	      0.28622704	    -10.65566322	    -14.57744280	    -17.81176300	     56.79415921	      0.99124507	    -11.99710166
     14.84666667	     -4.17213051	     -9.75005607	     -4.84678467	      2.18114038	      0.99276032	      1.03157359	     22.00553440	     15.78267424	     -6.62862149	     11.39108495	      0.19881194	      0.48288420	    -10.22516481	    -15.23570540	    -17.35454800	     59.62386498	      1.04063276	    -11.74899533
     14.85333333	     -3.95574776	    -10.25103411	     -5.32094185	      2.18049704	      0.98749604	      1.03192978	     22.42076839	     16.23142186	     -7.10573405	     14.21069827	      0.24802347	      0.87682125	     -9.62295779	    -15.81161404	    -16.79946588	     62.50963353	      1.09099892	    -11.47862783
     14.86000000	     -3.87450710	    -10.69894515	     -5.81450472	      2.17958831	      0.98181661	      1.03223007	     23.10899864	     16.60266041	     -7.58848584	     17.35731154	      0.30294224	      1.49251009	     -8.75399438	    -16.30758654	    -16.13354150	     65.47223512	      1.14270607	    -11.14220070
     14.86666667	     -3.81951322	    -11.05319385	     -6.31989468	      2.17844990	      0.97593738	      1.03244781	     23.92391352	     16.85792623	     -8.03708766	     20.75944915	      0.36232074	      2.36953945	     -7.75851403	    -16.67680464	    -15.42162987	     68.44986063	      1.19467544	    -10.73764937
     14.87333333	     -3.87074323	    -11.32029893	     -6.81567034	      2.17712028	      0.96980819	      1.03253968	     24.91536207	     17.00897510	     -8.44498008	     24.32602171	      0.42456917	      3.49856898	     -6.51994906	    -16.91096209	    -14.56450669	     71.44722834	      1.24698938	    -10.25732369
     14.88000000	     -3.91076972	    -11.47086635	     -7.28180316	      2.17560966	      0.96367747	      1.03250321	     25.89789960	     17.03577891	     -8.76445386	     27.92158865	      0.48732365	      4.86648532	     -5.18119087	    -17.00005981	    -13.66112627	     74.41863434	      1.29885019	     -9.71604156
     14.88666667	     -4.00075160	    -11.51800166	     -7.70441594	      2.17394703	      0.95756758	      1.03235360	     26.89214498	     16.96460530	     -8.98532536	     31.44465098	      0.54881269	      6.43340648	     -3.65675077	    -16.96305473	    -12.67561592	     77.36549291	      1.35028258	     -9.12239063
     14.89333333	     -4.11243917	    -11.45525831	     -8.08047386	      2.17216216	      0.95161561	      1.03206621	     27.82066564	     16.80352057	     -9.06324385	     34.80124524	      0.60739631	      8.15487656	     -1.98477729	    -16.78577242	    -11.63148084	     80.25482802	      1.40071099	     -8.50352223
     14.90000000	     -4.22997979	    -11.29000554	     -8.39534231	      2.17022792	      0.94594614	      1.03167686	     28.63412367	     16.56241395	     -9.00272440	     37.92163784	      0.66185744	      9.98463836	     -0.18324662	    -16.48953013	    -10.54597335	     83.06607404	      1.44977649	     -7.87729709
     14.90666667	     -4.25253919	    -11.02950647	     -8.61876317	      2.16820713	      0.94077987	      1.03110711	     29.19163912	     16.23272974	     -8.79940599	     40.74801223	      0.71118698	     11.86617035	      1.62793670	    -16.04279533	     -9.41623776	     85.74879247	      1.49659876	     -7.24948563
     14.91333333	     -4.57943169	    -10.73557358	     -8.82547534	      2.16607812	      0.93564027	      1.03057336	     29.89810569	     15.94271276	     -8.50739099	     43.22667745	      0.75444785	     13.71503599	      3.89557115	    -15.63597886	     -8.26030081	     88.39859372	      1.54284651	     -6.67191810
     14.92000000	     -4.75317161	    -10.38504623	     -8.92742287	      2.16391745	      0.93120526	      1.02989955	     30.24846630	     15.57709313	     -8.13834317	     45.35944587	      0.79167168	     15.53573354	      6.07554702	    -15.12043889	     -7.09867365	     90.85969887	      1.58580090	     -6.11876539
     14.92666667	     -4.83770083	     -9.99441191	     -8.92369298	      2.16168590	      0.92741424	      1.02905086	     30.32283359	     15.13039898	     -7.76697862	     47.15902379	      0.82308024	     17.24603117	      8.24553564	    -14.52456224	     -5.92538156	     93.14802884	      1.62573979	     -5.64570325
